Coordinates
version=1
nRows=24
nColumns=24
inDegrees=yes

Units are S.I. units (second, meters, Newtons, ...)
Angles are in degrees.

endheader
time	pelvis_tilt	pelvis_list	pelvis_rotation	pelvis_tx	pelvis_ty	pelvis_tz	hip_flexion_r	hip_adduction_r	hip_rotation_r	knee_angle_r	ankle_angle_r	subtalar_angle_r	mtp_angle_r	hip_flexion_l	hip_adduction_l	hip_rotation_l	knee_angle_l	ankle_angle_l	subtalar_angle_l	mtp_angle_l	lumbar_extension	lumbar_bending	lumbar_rotation
      1.06300000	      3.85458171	      0.88361171	     -5.70014862	     -0.14708891	      0.89564871	      0.38142348	    -23.31601828	      2.50197058	     -1.65340318	     -5.26309050	     20.79925020	     16.61202922	      6.95367444	     19.83222644	      0.62607712	    -14.60826051	     -3.56748838	      2.37399404	     -1.47696866	      0.84808363	    -11.84938950	     -1.62223609	     12.17741347
      1.06716667	      3.77723892	      0.95248319	     -5.83086341	     -0.14146696	      0.89454660	      0.38148114	    -23.33970438	      2.32123058	     -1.68962456	     -5.82180171	     20.97174696	     16.86624032	      7.14566379	     19.98495091	      0.70152085	    -14.41739147	     -3.95209402	      2.24706797	     -1.65812252	      0.86700139	    -11.75727424	     -1.79791460	     12.25212259
      1.07133333	      3.71053429	      1.03513384	     -5.95230504	     -0.13581433	      0.89351507	      0.38151297	    -23.36145924	      2.12526477	     -1.74510132	     -6.40607873	     21.10776811	     17.12773127	      7.37073103	     20.12597045	      0.79625646	    -14.21434032	     -4.40463622	      2.06850551	     -1.90852390	      0.90865197	    -11.66968937	     -1.98813761	     12.30967633
      1.07550000	      3.65274401	      1.12668531	     -6.06329689	     -0.13013593	      0.89255157	      0.38152784	    -23.37877099	      1.92107333	     -1.81526207	     -7.01753725	     21.20401355	     17.38673900	      7.64368785	     20.25921863	      0.90456944	    -13.99046236	     -4.92425200	      1.84337007	     -2.23038458	      0.97887021	    -11.58717229	     -2.19239323	     12.35111731
      1.07966667	      3.59956018	      1.23704112	     -6.16457070	     -0.12441276	      0.89166035	      0.38153337	    -23.39177936	      1.70097404	     -1.87648488	     -7.64666953	     21.24380386	     17.61138762	      7.95058826	     20.38737708	      1.03603017	    -13.76498824	     -5.50097772	      1.58342377	     -2.60338028	      1.07383325	    -11.51556667	     -2.41853913	     12.37061187
      1.08383333	      3.55283924	      1.35345687	     -6.25265145	     -0.11865972	      0.89083891	      0.38150667	    -23.39970024	      1.47516057	     -1.95033165	     -8.29819691	     21.22965550	     17.82512455	      8.29630757	     20.51055522	      1.18093524	    -13.51981290	     -6.12951059	      1.29165357	     -3.04045435	      1.19285680	    -11.43842992	     -2.65339054	     12.36909171
      1.08800000	      3.51765531	      1.47747320	     -6.32099825	     -0.11287889	      0.89009502	      0.38144356	    -23.40771431	      1.24579193	     -2.04355822	     -8.97418960	     21.17985345	     18.06056174	      8.79451811	     20.62331689	      1.34514118	    -13.24482540	     -6.80071708	      0.94861355	     -3.56164387	      1.37693295	    -11.38321327	     -2.89084723	     12.35135450
      1.09216667	      3.48405760	      1.61693775	     -6.39255966	     -0.10703860	      0.88943138	      0.38139184	    -23.40285803	      1.00042699	     -2.10992865	     -9.67636627	     21.03536045	     18.19094766	      9.26736846	     20.73495464	      1.52169372	    -13.01707332	     -7.51881642	      0.63389337	     -4.06349225	      1.55461962	    -11.29877909	     -3.16229569	     12.30955222
      1.09633333	      3.52837850	      1.75080152	     -6.43493792	     -0.10116886	      0.88894582	      0.38130323	    -23.49945633	      0.76569326	     -2.17853956	    -10.32701068	     20.68876173	     18.20181295	     15.18001517	     20.76754284	      1.70730538	    -12.80870639	     -8.27503179	      0.24922422	     -4.58799727	      3.85388371	    -11.34068448	     -3.41685582	     12.26740418
      1.10050000	      3.49953467	      1.88354631	     -6.45850862	     -0.09528332	      0.88842065	      0.38116612	    -23.46461786	      0.54186945	     -2.26879969	    -11.10223202	     20.47122236	     18.33495628	     15.25303180	     20.90052882	      1.88847715	    -12.57605978	     -9.10809263	     -0.05031548	     -5.07738530	      3.88338446	    -11.27357146	     -3.65893474	     12.20511670
      1.10466667	      3.47451205	      2.03861956	     -6.48670614	     -0.08932171	      0.88798899	      0.38103410	    -23.42238036	      0.29163368	     -2.33845487	    -11.89072963	     20.13114163	     18.42407394	     15.36251586	     21.01014084	      2.09720775	    -12.35053886	     -9.92952797	     -0.32741117	     -5.60780643	      3.91803211	    -11.18708967	     -3.95125205	     12.12201205
      1.10883333	      3.46770397	      2.18647492	     -6.48354803	     -0.08335720	      0.88764590	      0.38083669	    -23.37067044	      0.05509910	     -2.44084480	    -12.74077221	     19.78257185	     18.52023838	     15.55058803	     21.10296778	      2.31649158	    -12.07500271	    -10.77066481	     -0.61418265	     -6.22113473	      3.96835669	    -11.14185659	     -4.21578776	     12.01406815
      1.11300000	      3.49155294	      2.33406791	     -6.46287583	     -0.07738676	      0.88742195	      0.38058771	    -23.31741996	     -0.18334746	     -2.58071837	    -13.65615995	     19.42798454	     18.60704613	     15.94689858	     21.15237935	      2.55246749	    -11.76358468	    -11.60260488	     -0.93675918	     -6.88567104	      4.06092271	    -11.14755418	     -4.46325490	     11.87733871
      1.11716667	      3.54699239	      2.48759949	     -6.43370050	     -0.07132392	      0.88732380	      0.38032502	    -23.30568462	     -0.43053818	     -2.71228536	    -14.53405887	     18.78537212	     18.64745215	     20.37146496	     21.16579985	      2.79740151	    -11.48928385	    -12.46679927	     -1.08970910	     -7.49401939	      4.99082257	    -11.17751621	     -4.72994528	     11.80457752
      1.12133333	      3.52391247	      2.64286532	     -6.41195700	     -0.06523954	      0.88720667	      0.38011010	    -23.15599090	     -0.66659993	     -2.76696218	    -15.52336623	     18.22077707	     18.60511673	     20.43761459	     21.27006344	      3.01217194	    -11.32007623	    -13.36058390	     -1.25504181	     -7.86601347	      4.99861971	    -11.07659480	     -5.03344157	     11.65313863
      1.12550000	      3.53533404	      2.77747586	     -6.34965139	     -0.05919819	      0.88719480	      0.37976586	    -22.99179347	     -0.88475510	     -2.91177972	    -16.61452734	     17.65966412	     18.64385286	     20.64195349	     21.32478025	      3.24649711	    -11.00370937	    -14.23076191	     -1.39022262	     -8.44494674	      5.01300746	    -11.05701109	     -5.24861693	     11.46332228
      1.12966667	      3.57172604	      2.93034950	     -6.29413761	     -0.05304961	      0.88730595	      0.37945480	    -22.85615883	     -1.12423029	     -3.01304040	    -17.68247473	     16.92111652	     18.64554788	     20.79750602	     21.33761436	      3.48940282	    -10.77585438	    -15.10556951	     -1.37376028	     -8.84921052	      5.02123524	    -11.03899191	     -5.54029276	     11.34539863
      1.13383333	      3.58155301	      3.06414852	     -6.21333269	     -0.04698560	      0.88743282	      0.37902661	    -22.59615829	     -1.35265880	     -3.19613430	    -18.93971368	     16.26594718	     18.70110713	     21.18516840	     21.36198439	      3.73960060	    -10.42995308	    -15.92925053	     -1.43950058	     -9.41499697	      5.02766932	    -11.01933327	     -5.73038853	     11.11585823
      1.13800000	      3.71117229	      3.21712712	     -6.13043291	     -0.04081512	      0.88781812	      0.37858591	    -22.48777440	     -1.61851983	     -3.39711174	    -20.11438205	     15.33556753	     18.75977664	     25.99208721	     21.21465618	      4.03361415	    -10.08714205	    -16.69687261	     -1.36430446	     -9.99993527	      4.99911579	    -11.14108752	     -5.99223354	     10.96486955
      1.14216667	      3.69577945	      3.35661824	     -6.05758868	     -0.03469103	      0.88804853	      0.37818362	    -22.12038428	     -1.85777527	     -3.52646009	    -21.49213565	     14.50575877	     18.68917522	     26.07438016	     21.24863117	      4.25879006	     -9.89657596	    -17.52185934	     -1.23974776	    -10.19088522	      4.99608307	    -11.05552877	     -6.23240670	     10.80098247
      1.14633333	      3.75246430	      3.49222627	     -5.96979199	     -0.02854535	      0.88844570	      0.37773635	    -21.81877308	     -2.10267535	     -3.67520352	    -22.86962596	     13.56641618	     18.69179552	     26.17228888	     21.17164986	      4.50697206	     -9.64698594	    -18.29574580	     -1.02001694	    -10.47001086	      4.99054293	    -11.07666134	     -6.48311327	     10.65420035
      1.15050000	      3.79839074	      3.63226531	     -5.87569313	     -0.02245694	      0.88885288	      0.37719541	    -21.42048333	     -2.37638224	     -3.89719168	    -24.40141301	     12.69735342	     18.75660327	     26.52202044	     21.08492350	      4.77778419	     -9.35541873	    -19.01278188	     -0.85612652	    -10.89344038	      4.95130851	    -11.09555521	     -6.68888033	     10.38435870
      1.15466667	      3.88029032	      3.76114226	     -5.78644910	     -0.01632851	      0.88940150	      0.37670692	    -21.05289311	     -2.63676609	     -4.06405581	    -25.91087231	     11.61047205	     18.74040147	     26.66796440	     20.91551652	      5.02927057	     -9.10415709	    -19.66384713	     -0.55534278	    -11.05209144	      4.93747191	    -11.14843337	     -6.91273959	     10.27427644
      1.15883333	      3.94942965	      3.91936705	     -5.72130697	     -0.01026785	      0.88993489	      0.37613801	    -20.57286823	     -2.97084022	     -4.28385385	    -27.59416028	     10.65666579	     18.80971069	     27.60236631	     20.72688975	      5.33059072	     -8.81331069	    -20.22742466	     -0.28378936	    -11.47527935	      4.80069453	    -11.18380473	     -7.12290600	      9.93616680
